# xmcd
# 
# Track frame offsets:
#     150
#     22796
#     45092
#     67312
#     90974
#     108673
#     134208
#     153912
#     176492
#     198301
#     213909
#     235679
#     253511
#     269323
#     289562
#     310122
# 
# Disc length: 4433
# 
# Revision: 0
# Processed by: cddbd v1.5.2PL0 Copyright (c) Steve Scherf et al.
# Submitted via: fre:ac v1.0.31
# 
DISCID=d4114f10
DTITLE=Peggy Scott-Adams - 16 Hits!
DYEAR=2004
DGENRE=Soul and R&B
TTITLE0=I Intend to Take Your Place
TTITLE1=Slow Drag
TTITLE2=See You Next Weekend
TTITLE3=Bill
TTITLE4=I'll Take Care of You
TTITLE5=That's How I Do It
TTITLE6=If I'm Not Still Married
TTITLE7=I'm in Love
TTITLE8=Spousal Abuse
TTITLE9=When You're Married to a Fool
TTITLE10=Your Divorce Has Been Denied
TTITLE11=Mr. Right or Mr. Wrong
TTITLE12=What Cha Doin to Me
TTITLE13=If You Wanna Hear Me Holler, Lick Me Up Some Dollars
TTITLE14=I'm Getting What I Want
TTITLE15=You Will Always Be My Man
EXTD=excellent
EXTT0=
EXTT1=
EXTT2=
EXTT3=
EXTT4=
EXTT5=
EXTT6=
EXTT7=
EXTT8=
EXTT9=
EXTT10=
EXTT11=
EXTT12=
EXTT13=
EXTT14=
EXTT15=
PLAYORDER=
